<svg xmlns="http://www.w3.org/2000/svg" viewBox="0 0 116.07 158.34">
    <title>Black Sabbath logo - Brandlogos.net</title>

    <path d="M326,305.77c-.2-1.14.16-1.26,1.06-.27,5.05,8,13.3,12.51,20.8,17.49a104.25,104.25,0,0,0,16.82,7.62c8.32,2.79,14.54,5.7,8.51,9.24-2.91.77-4,1.89-3.79,3.25a7.45,7.45,0,0,0,1.14,3.09c.07.12,0,.4-.38.11l-3.28-3.2c-1-.71-2-1.41-3-2.1a.76.76,0,0,0-.62-.13,7.94,7.94,0,0,1-4.15-.93,1,1,0,0,0-.44-.17c-.39,0-.36.14-.13.38a18.94,18.94,0,0,0,4.37,1.75,8.36,8.36,0,0,1,5.35,5.2,23.16,23.16,0,0,0,5.17,6.66,15.55,15.55,0,0,1,3.6,3l.4.84a11.62,11.62,0,0,0,3.93,4.95,17.24,17.24,0,0,0,3.46,1.89c2,.17,3,1.05,3.79,2.95a3.8,3.8,0,0,0,1.31,1.86c.24.13.52.22.47-.25a4.45,4.45,0,0,0-2.22-4.08l-1.27-.62A1.29,1.29,0,0,1,386,363a.73.73,0,0,0,0-.31,1.07,1.07,0,0,0-.74-.53A.32.32,0,0,1,385,362c-.24-.26-.07-.48.32-.55a2.79,2.79,0,0,1,.77.07,2.72,2.72,0,0,0,.47.18.85.85,0,0,0,.3,0c.1,0,.09,0,.11-.12a1.41,1.41,0,0,0-.67-1.31c-.41-.39,0-.7.44-.4a92,92,0,0,1,8.05,5.87A2.57,2.57,0,0,1,395.9,369a3.93,3.93,0,0,0,.13,3.08,11.08,11.08,0,0,1,.94,8,7.22,7.22,0,0,0,.27,5c.41,1,0,1.09-.63,1-.15-.13-.28-.46-.67,0q0,.39-.8.13a2.24,2.24,0,0,0-1.87.18c-.62.25-.74,1-.52,2.11a.66.66,0,0,0,.15.36,1.52,1.52,0,0,1,.13,1.54,6.73,6.73,0,0,0,1.16,4.29,28.15,28.15,0,0,0,7.19,5.52,11.76,11.76,0,0,1,4.29,5.77l.92,3.18c.07.13.24.34.52,0a8.21,8.21,0,0,0,.27-4.75,17.31,17.31,0,0,0-3.66-7.45l-4.56-5.54-1.39-1.91a5.11,5.11,0,0,1,.23-4.3,14.87,14.87,0,0,1,1.4-3.15,10.33,10.33,0,0,0,.81-3.91,16.11,16.11,0,0,0-1.22-6.63,19.78,19.78,0,0,1-.19-5.11l-.54-1.65c-.22-.43-.23-.9.62-.73a2.17,2.17,0,0,0,2.65-.11c.08-.08,0-.11.08-.24.18-.52.44-.67,1.07-.35a9,9,0,0,0,5.1-.23c.92-.69,1.61-.55,2.14.14a6.32,6.32,0,0,0,4.36,2,18.37,18.37,0,0,1,3.34.48c1.53.26,2.81.14,3.23-1.35.17-.33.4-.11.5-.07a5.11,5.11,0,0,0,2.8,1.12,7.49,7.49,0,0,0,3.63.16l1.11-.44q1-.39-.16-.6a1.73,1.73,0,0,0-1-.4,11.67,11.67,0,0,1-2.87-.16,3.81,3.81,0,0,1-2.52-.75q-.5-.75-1.14-.29a1.79,1.79,0,0,1-2.08.37,4.93,4.93,0,0,0-2.12-.77,22.85,22.85,0,0,1-3.5-.12,45.14,45.14,0,0,1-5.37-1.51,11.56,11.56,0,0,0-3.42.08,20.24,20.24,0,0,1-6.59,0,5.18,5.18,0,0,0-2.8-.57,12.89,12.89,0,0,0-2.63.17c-.2-.14-.61-.1-.61-.4a3.69,3.69,0,0,0-.86-2.33,8,8,0,0,1-.12-2,1.87,1.87,0,0,0-.67-1.28q-.07-1.31-.94-.61a1.3,1.3,0,0,1-1.65.2q-1.11.13-.61,1a7.26,7.26,0,0,1,2.53,3.07,3.05,3.05,0,0,0,.2,1.52q.46,1-.61.27a4.13,4.13,0,0,0-3.78-1.55,2.64,2.64,0,0,1-2.79-.53,2.93,2.93,0,0,0-2.16-.86,4.22,4.22,0,0,1-3.91-2.14,17.53,17.53,0,0,0-3.44-4.36.73.73,0,0,1-.14-1,1.43,1.43,0,0,0,.64-2.25,5.47,5.47,0,0,1,0-3.7c.27-.47.66-1.17,1,0,.25,2.52,1.11,4.15,2.87,4.49.56.11,1,.11.49-.64a11.67,11.67,0,0,0-1.63-1.29q-.89-.92.4-1.74a3.83,3.83,0,0,0,1.46-.5,1.71,1.71,0,0,0,.59-2.13c-.09-.65.28-.53.72-.3.82,1.31,1.74,1,2.61,1s1.17.51,1.43,1.82c0,1.19-.26,2.47.61,3.13q-.16,1.37.66,1.59a2.84,2.84,0,0,1,1.5,1.71q.33.88-.59.42a1.39,1.39,0,0,0-1.08-.35q-1.36.14-.93.91a3.88,3.88,0,0,0,1.52,1.56,1.21,1.21,0,0,0,1.38-.76q0-.67.66-.62c.68.23,1.08,0,1.17-.73-.18-.31-.63-.61,0-.94.1-.07.26-.25,0-.44q-.67-.6-.07-1.09a.78.78,0,0,0,.09-1.2c-.1-.12-.11-.13-.26-.13a6.12,6.12,0,0,0-1.1,0c-.14,0-.14,0-.2.15a1.63,1.63,0,0,1-1,.94,1.29,1.29,0,0,1-1.25-.93q-.19-1.25.69-1.43a1.83,1.83,0,0,1,1.29.66c.17.21.13.29.41.29h1c.11,0,.1,0,.18-.07q.42-.39.78.39l.28,1.35a1,1,0,0,1,.71.83,1.46,1.46,0,0,1-.48.83.68.68,0,0,0,.09.76,1.43,1.43,0,0,0,.78.78c.21,0,.38-.07.56-.11.14-.23.32-.45-.17-.59a.75.75,0,0,1-.69-.46.85.85,0,0,1,.45-1c.34.07.59.18.65.39a3.35,3.35,0,0,1,2.66,1.28c1-.66,1.4-2.33,1-5.49-.25-1.11-.26-2,1.34-1.63.7.2,1.09.09.81-.69L396,341q-.78-1.2.57-1.42c5.44.52,9.94,1.21,12.59-4.51.13-.42.4-.56.91-.22,2.34,2,4.88,3.58,8.39,3.5a8.52,8.52,0,0,0,5.15-2.12l.55,0c5.59,1.43,11.33,2.54,17.15,3.51,1.39.32.47.9-.17.87-3.44.34-7,.49-10.69.48a38.59,38.59,0,0,0-16.09,4.41,15.92,15.92,0,0,0-4.28,3.34c3.21.58,3.88,2.23.56,3.41a18.78,18.78,0,0,0-11.22,7.65l.17.5a14.71,14.71,0,0,0,6.63-.21,3.6,3.6,0,0,1,1.89,0,21.92,21.92,0,0,0,5.45,1.55,25.33,25.33,0,0,0,3.4.25,7.29,7.29,0,0,1,2.22.59,4.28,4.28,0,0,1,3.23-.42c1.51,1.46,3.65,1.59,5.83,1.53l1,.43q1.49.09.71,1a21.27,21.27,0,0,1-4.36,1.31,13.45,13.45,0,0,0-5.71.6,24.72,24.72,0,0,0-6.53.28,11.05,11.05,0,0,0-6.74-1.17c-2.21.53-4.43,1.09-6.77,1.53-.22,0-.23,0-.26.24a10.8,10.8,0,0,0,.53,4.73,15.77,15.77,0,0,1,.62,4.31,8.73,8.73,0,0,1-.73,4.46,33.65,33.65,0,0,0-1.61,4.43,3.19,3.19,0,0,0,.25,3.69l5.59,7a17.66,17.66,0,0,1,4.05,10.73,9.75,9.75,0,0,1-4,5.07,10.1,10.1,0,0,0-5.39-.22,14.2,14.2,0,0,1-6.85-.73,28,28,0,0,0-9-1.46,20,20,0,0,1-7.44-1.09,2.62,2.62,0,0,0-2.51.1,15.51,15.51,0,0,1-6.46,1.86,59.07,59.07,0,0,1-12.46,4.91,10.84,10.84,0,0,0-3.34,3.13,11.46,11.46,0,0,1-3.73,3.73,5.28,5.28,0,0,0-2.24,4.37q-.73,1.82-2.34,1c-2.25-1.41-2.38-3.66-1.07-6.5a6.21,6.21,0,0,0,1.17-4.79c.1-1.42.61-2.44,2-2.56,2.26.72,5.72-1.59,9.59-5.65a14.65,14.65,0,0,1,8-4.53c3.19-.12,6-2,8.56-4.78a16.29,16.29,0,0,1,3.73-3.45A14.71,14.71,0,0,0,378,393c-6.88.11-12.65-1.8-17-5.64-3.77-2.63-7.39-6.86-11.74-3.08-1.21,1.61-.92,3.21.05,4.82a1.1,1.1,0,0,0,.63-.65c.32-.06.48.1.46.32a5.67,5.67,0,0,0,1,4.43c0,.22,0,.32-.28.28a13.49,13.49,0,0,1-4.54-3.64A.48.48,0,0,1,347,389c-1.22-2.73-.6-4.51.69-6q3.84-3.64,9-1.09a62.54,62.54,0,0,1,8.27,5.46,12.54,12.54,0,0,0,12.66,2.16,2.44,2.44,0,0,0,2.09-2.09,9.1,9.1,0,0,1,4.93-4.12c.91-.16,1.21-.6.17-1.66a2.43,2.43,0,0,0-3.41-.25q-.63.62-.82-.11c0-1,.66-1.71,1.69-2.45.59-.84.19-1.11-.65-1.13-3.72-.22-7.38,2.05-11,4.85a28.06,28.06,0,0,1-3.6,3.25c-.8-8.77-7-9.85-16.36-8.47,6.07-11.06,3.39-17.86-10.73-16.32,8.81-11.48,7.73-18.7-5.29-20.77q5.29-11.9-3-22.79a31.42,31.42,0,0,1-5.64-11.8Z" transform="translate(-325.96 -304.83)" style="fill:#ece7db;fill-rule:evenodd"/>
    <path d="M394.52,391.44a2.8,2.8,0,0,0-.29-2.83q-.31-.89.71-.58a3.91,3.91,0,0,1,1.26,2.74,2.84,2.84,0,0,0,1.71,2.77c.84,1.73.61,2-.1,1.58a4.67,4.67,0,0,0-1.64-1.35c-1.22-.23-1.62-1.12-1.64-2.32Z" transform="translate(-325.96 -304.83)" style="fill:#ece7db;fill-rule:evenodd"/><polygon points="98.96 52.2 100.74 52.95 102.25 51.62 102.38 53.51 104.23 54.05 102.47 54.81 103.22 56.7 101.6 56.16 100.01 57.21 99.74 55.6 98.04 55.03 99.43 53.94 98.96 52.2 98.96 52.2" style="fill:#ece7db;fill-rule:evenodd"/>
    <path d="M397.82,405.27a5.51,5.51,0,0,1,.74,2.88,6.39,6.39,0,0,1,3.09.53c2-.07,2.59-.67.11-2.45a8.68,8.68,0,0,1-3.94-1Z" transform="translate(-325.96 -304.83)" style="fill:#111827;fill-rule:evenodd" />
    <path d="M387.83,400a18.23,18.23,0,0,1,4.33,3.57,34.79,34.79,0,0,0-7,.58,1.78,1.78,0,0,0-.62-2,6.94,6.94,0,0,0,3.3-2.14Z" transform="translate(-325.96 -304.83)" style="fill:#111827;fill-rule:evenodd" />
    <path d="M374.75,404.31c-2.5.7-1.38,1.19-.23.92a3.13,3.13,0,0,1,2.31.92,3.27,3.27,0,0,0,2.77.23q3.31,0,1.08-.92a8.78,8.78,0,0,1-3.61-1.23l-2.31.08Z" transform="translate(-325.96 -304.83)" style="fill:#111827;fill-rule:evenodd" />
    <path d="M369.75,403.45h2.08a1.92,1.92,0,0,1-1.47,1.64,4,4,0,0,0-3,1.25q.43-2.51,2.42-2.9Z" transform="translate(-325.96 -304.83)" style="fill:#111827;fill-rule:evenodd" />
    <path d="M366,404.17c-.2,3.36-1.59,5.5-5.11,5.46.26,1.65-2.09,2.08-4.61,3.23a14.48,14.48,0,0,1-6.24,2.2,2.63,2.63,0,0,0-2.77,1.21q-.34.8.18,1c.55-.16.87.12,1.08.62s.76.33,1.26-.06c1.09-.46,1.37-.16.74.86-1.9,2-4.23,3.14-5.69,5.54a9.62,9.62,0,0,0-.89,2.37q.17,1-.71,0c-1.15-1.14-.71-2.6.62-4.24,1.74-1.78,2.84-3.3,1.66-3.94-1.34-.06-1.28-1.07-.58-2.52.35-1.16,1.26-1.31,2.25-1.32a19.25,19.25,0,0,0,2.25-.79,27.49,27.49,0,0,0,6.07-3.67,11.89,11.89,0,0,1,3.36-.1c1.35-.12,1.77-.6,1.66-1.28-.71-3.47,1.75-4.5,5.48-4.55Z" transform="translate(-325.96 -304.83)" style="fill:#111827;fill-rule:evenodd" />
</svg>